Jump_normalized_pl07_filtered_grf
version=1
nRows=10
nColumns=37
inDegrees=yes
endheader
time		1_ground_force_vx		1_ground_force_vy		1_ground_force_vz		1_ground_force_px		1_ground_force_py		1_ground_force_pz		1_ground_torque_x		1_ground_torque_y		1_ground_torque_z		2_ground_force_vx		2_ground_force_vy		2_ground_force_vz		2_ground_force_px		2_ground_force_py		2_ground_force_pz		2_ground_torque_x		2_ground_torque_y		2_ground_torque_z		3_ground_force_vx		3_ground_force_vy		3_ground_force_vz		3_ground_force_px		3_ground_force_py		3_ground_force_pz		3_ground_torque_x		3_ground_torque_y		3_ground_torque_z		4_ground_force_vx		4_ground_force_vy		4_ground_force_vz		4_ground_force_px		4_ground_force_py		4_ground_force_pz		4_ground_torque_x		4_ground_torque_y		4_ground_torque_z		
0.234500		0.000000		-0.000000		-0.000000		0.137251		0.000000		0.190652		-0.000000		-0.000000		0.000000		-0.000000		-0.000000		-0.000000		-0.203925		0.000000		0.212187		-0.000000		0.000000		-0.000000		-39.067863		286.779915		-190.469476		0.412989		1.262740		1.879347		1.651701		-12.124410		8.052621		50.066435		261.279716		-159.457952		-0.353666		1.256028		1.905189		2.071654		10.811261		-6.598069		
0.236848		0.000000		-0.000000		-0.000000		0.137251		0.000000		0.190652		-0.000000		-0.000000		0.000000		-0.000000		-0.000000		-0.000000		-0.203925		0.000000		0.212187		-0.000000		0.000000		-0.000000		-34.783163		269.921546		-184.430631		0.412984		1.262792		1.879309		1.461984		-11.345133		7.751833		46.346335		242.352498		-152.699346		-0.353634		1.256045		1.905118		1.899459		9.932575		-6.258212		
0.239197		0.000000		-0.000000		-0.000000		0.137251		0.000000		0.190652		-0.000000		-0.000000		0.000000		-0.000000		-0.000000		-0.000000		-0.203925		0.000000		0.212187		-0.000000		0.000000		-0.000000		-30.202912		252.425058		-177.151979		0.412981		1.262845		1.879257		1.262993		-10.555593		7.407908		42.389794		222.962862		-144.732652		-0.353603		1.256060		1.905036		1.720173		9.047800		-5.873212		
0.241545		0.000000		0.000000		0.000000		0.137251		0.000000		0.190652		0.000000		-0.000000		-0.000000		-0.000000		0.000000		0.000000		-0.203925		0.000000		0.212187		0.000000		0.000000		0.000000		-25.401809		234.346778		-168.668067		0.412975		1.262899		1.879190		1.057557		-9.756582		7.022172		38.208552		203.217294		-135.606896		-0.353573		1.256074		1.904943		1.534622		8.162088		-5.446556		
0.243894		0.000000		0.000000		0.000000		0.137251		0.000000		0.190652		0.000000		0.000000		-0.000000		-0.000000		0.000000		0.000000		-0.203925		0.000000		0.212187		0.000000		-0.000000		0.000000		-20.473978		215.772286		-159.039286		0.412969		1.262953		1.879103		0.849197		-8.949528		6.596425		33.838586		183.249808		-125.407129		-0.353545		1.256087		1.904839		1.344531		7.281170		-4.982863		
0.246242		0.000000		0.000000		0.000000		0.137251		0.000000		0.190652		0.000000		0.000000		-0.000000		-0.000000		0.000000		0.000000		-0.203925		0.000000		0.212187		0.000000		-0.000000		0.000000		-15.531642		196.829753		-148.382585		0.412962		1.263005		1.878998		0.642082		-8.136926		6.134119		29.343533		163.229532		-114.284972		-0.353517		1.256098		1.904724		1.152569		6.411379		-4.488907		
0.248591		0.000000		0.000000		0.000000		0.137251		0.000000		0.190652		0.000000		0.000000		-0.000000		-0.000000		0.000000		0.000000		-0.203925		0.000000		0.212187		0.000000		-0.000000		0.000000		-10.693491		177.677164		-136.848521		0.412954		1.263057		1.878873		0.440699		-7.322350		5.639736		24.806137		143.352265		-102.436560		-0.353489		1.256109		1.904598		0.962066		5.559661		-3.972812		
0.250939		0.000000		0.000000		0.000000		0.137251		0.000000		0.190652		0.000000		0.000000		-0.000000		-0.000000		0.000000		0.000000		-0.203925		0.000000		0.212187		0.000000		-0.000000		0.000000		-6.082007		158.500881		-124.614240		0.412944		1.263105		1.878725		0.249829		-6.510631		5.118692		20.323876		123.843519		-90.097356		-0.353463		1.256118		1.904461		0.776878		4.733886		-3.443943		
0.253288		-0.000000		0.000000		0.000000		0.137251		0.000000		0.190652		0.000000		0.000000		-0.000000		0.000000		0.000000		0.000000		-0.203925		0.000000		0.212187		0.000000		-0.000000		0.000000		-1.817801		139.516071		-111.892828		0.412933		1.263149		1.878557		0.074380		-5.708017		4.577863		16.003790		104.954498		-77.548059		-0.353437		1.256125		1.904314		0.601194		3.942619		-2.913086		
0.255636		-0.000000		0.000000		0.000000		0.137251		0.000000		0.190652		0.000000		0.000000		-0.000000		0.000000		0.000000		0.000000		-0.203925		0.000000		0.212187		0.000000		-0.000000		0.000000		1.993284		120.951525		-98.924057		0.412920		1.263188		1.878368		0.161220		-8.471323		-0.294799		11.949906		86.940238		-65.095859		-0.353414		1.256130		1.904157		0.439070		3.194315		-2.391713		
